<?xml version="1.0" encoding="UTF-8"?>
<svg version="1.1" xmlns="http://www.w3.org/2000/svg" width="500" height="100" viewBox="0 0 300 700" >
<path d="M0 0 C-1.98901566 8.39806611 -7.86320899 16.24213933 -15 21 C-16.09441406 21.20367187 -17.18882812 21.40734375 -18.31640625 21.6171875 C-23.45649717 23.54676564 -25.12009421 26.57286376 -27.9375 31.125 C-28.44893555 31.92019043 -28.96037109 32.71538086 -29.48730469 33.53466797 C-34.24162284 41.06905351 -38.25872056 48.92323791 -42 57 C-41.61070312 56.60167969 -41.22140625 56.20335937 -40.8203125 55.79296875 C-35.12927209 50.40352725 -29.18452923 48.21644117 -21.375 47.8125 C-20.199375 47.9053125 -20.199375 47.9053125 -19 48 C-21.13338308 54.82682584 -26.0247401 61.11608107 -32 65 C-36.13965896 66.761557 -39.51782019 67.21343713 -44 67 C-44.33 65.68 -44.66 64.36 -45 63 C-56.01430246 97.72448027 -52.11174426 129.5587852 -36 162 C-35.34 162.99 -34.68 163.98 -34 165 C-33.91363281 164.24976563 -33.82726562 163.49953125 -33.73828125 162.7265625 C-32.71927066 155.30367799 -30.75444704 149.47713765 -27 143 C-26.34 143 -25.68 143 -25 143 C-21.7326015 151.38158746 -19.20377536 160.96035724 -22.3125 169.75 C-24 173 -24 173 -26 174 C-26.66 174 -27.32 174 -28 174 C-26.42301238 175.63115895 -24.83815634 177.25471333 -23.25 178.875 C-22.36828125 179.77992188 -21.4865625 180.68484375 -20.578125 181.6171875 C-18.38363316 183.64542996 -16.7332864 184.88880413 -14 186 C-14.495 184.906875 -14.99 183.81375 -15.5 182.6875 C-17.60585865 177.0885109 -18.43002121 170.26548904 -15.98046875 164.671875 C-15.65691406 164.12015625 -15.33335937 163.5684375 -15 163 C-1.86313113 176.69827352 -1.86313113 176.69827352 -1.6875 185.875 C-1.77004364 188.36868684 -1.87864668 189.75729336 -3 192 C-3.99 192 -4.98 192 -6 192 C-0.39 194.64 5.22 197.28 11 200 C10.030625 198.185 9.06125 196.37 8.0625 194.5 C5.53568414 189.48204097 4.21492009 185.58792238 4 180 C8.34344694 180.52836206 10.70557129 181.98974332 14.0625 184.75 C15.31740234 185.76320313 15.31740234 185.76320313 16.59765625 186.796875 C20.7740375 190.62692219 23.34250527 193.64065791 24.25 199.3125 C24.39953125 200.19550781 24.5490625 201.07851563 24.703125 201.98828125 C24.80109375 202.65214844 24.8990625 203.31601562 25 204 C23.35 204.33 21.7 204.66 20 205 C24.56761142 206.84301764 29.13917762 208.67572635 33.71459961 210.49926758 C35.26844522 211.12019185 36.82120111 211.74385073 38.37280273 212.37036133 C40.61156339 213.27377133 42.85414252 214.16706373 45.09765625 215.05859375 C45.78336197 215.3377916 46.46906769 215.61698944 47.17555237 215.90464783 C53.73309699 218.48924165 59.12326563 219.78065765 65.94140625 217.234375 C67.01970703 216.83863281 68.09800781 216.44289063 69.20898438 216.03515625 C70.86897461 215.39900391 70.86897461 215.39900391 72.5625 214.75 C73.67302734 214.34136719 74.78355469 213.93273437 75.92773438 213.51171875 C81.09736703 211.58741503 86.14589715 209.62752843 91 207 C90.01 206.67 89.02 206.34 88 206 C87.33592037 199.62483555 88.98526997 195.95284534 93 191 C96.87508336 187.07985753 101.29150597 183.84699639 106 181 C106.66 181 107.32 181 108 181 C107.61570525 187.05264234 106.59578867 191.60128648 103.9375 197.0546875 C102.88499918 199.13335054 102.88499918 199.13335054 102 202 C107.28 199.36 112.56 196.72 118 194 C117.01 193.67 116.02 193.34 115 193 C113.48580913 189.97161826 113.47454331 187.27353479 114 184 C116.58600033 176.9725731 120.81865788 170.40321319 126 165 C126.66 165 127.32 165 128 165 C130.50329162 170.00658324 129.76311044 178.18270273 128.328125 183.48046875 C127.5 185.375 127.5 185.375 126 188 C131.47035213 184.20962911 135.89962427 180.24972347 140 175 C139.38125 174.9175 138.7625 174.835 138.125 174.75 C136 174 136 174 134.7734375 172.41796875 C133.69870713 169.05807936 133.61850609 165.80622587 133.625 162.3125 C133.62371094 161.60222656 133.62242187 160.89195312 133.62109375 160.16015625 C133.73590668 154.44038474 134.94844627 149.90428279 138 145 C141.42495634 148.00762972 142.86365615 150.55092752 144.25 154.875 C144.58515625 155.88304687 144.9203125 156.89109375 145.265625 157.9296875 C146.01627996 161.06806409 146.13431155 163.78611645 146 167 C161.6838581 137.06532668 169.13722986 107.45301097 160 74 C159.05492826 70.97989188 158.05200321 67.98444399 157 65 C156.67 66.32 156.34 67.64 156 69 C147.22375506 68.60994467 142.75118989 66.03775157 136.75 59.5625 C134.01494784 56.51471901 132.34032134 53.87735817 131 50 C139.12555866 50.16992613 144.99646286 51.88295322 152 56 C151.31238981 52.34435091 149.74550455 49.48132728 147.9375 46.25 C147.38964844 45.26515625 146.84179688 44.2803125 146.27734375 43.265625 C145.85582031 42.51796875 145.43429687 41.7703125 145 41 C144.67 41.99 144.34 42.98 144 44 C139.39132567 45.53622478 135.29956034 45.8933832 130.7578125 44.12890625 C125.29118688 41.24426816 120.20672104 37.5505947 116 33 C116 32.34 116 31.68 116 31 C122.89662387 28.70112538 129.52794158 29.77506318 136.1875 32.34375 C137.99214756 33.11348036 137.99214756 33.11348036 140 33 C135.87981233 26.91364374 133.41546349 23.61791931 126 22 C119.56027376 17.84101013 114.14208721 10.64491334 112.30078125 3.15625 C112.20152344 2.4446875 112.10226562 1.733125 112 1 C120.47432504 2.36682662 127.15460851 5.44301287 133.5 11.3125 C134.9249476 13.86553111 135.29061286 15.31375046 135.75 18.125 C136.88851655 24.49424822 141.03694646 29.06922408 145 34 C144.98952637 33.28344238 144.97905273 32.56688477 144.96826172 31.82861328 C144.92678701 28.59411095 144.90070108 25.35966447 144.875 22.125 C144.85824219 20.99707031 144.84148437 19.86914062 144.82421875 18.70703125 C144.81777344 17.63066406 144.81132812 16.55429687 144.8046875 15.4453125 C144.79421387 14.45031738 144.78374023 13.45532227 144.77294922 12.43017578 C145 10 145 10 147 8 C153.68003618 14.92497084 157.68602388 22.2667402 158 32 C156.5011355 39.61922786 156.5011355 39.61922786 153 42 C152.01 42 151.02 42 150 42 C150.49628906 42.83917969 150.99257813 43.67835938 151.50390625 44.54296875 C164.43592744 67.13956956 168.678836 90.27965829 168 116 C168.33781494 115.43176514 168.67562988 114.86353027 169.02368164 114.27807617 C173.53761315 106.81296986 179.61467505 100.86893786 186 95 C186.33 95 186.66 95 187 95 C187.74734674 104.38335356 186.09176311 113.63126472 180.0625 121.125 C177.62092618 123.65267466 175.48290134 125.17510232 172 126 C170.68 126 169.36 126 168 126 C167.67 125.34 167.34 124.68 167 124 C166.64808594 125.24652344 166.29617188 126.49304688 165.93359375 127.77734375 C159.66615202 149.56590793 152.2522586 168.72462297 136 185 C135.26910156 185.7425 134.53820312 186.485 133.78515625 187.25 C127.62691602 193.12154376 120.43147843 197.00640975 113 201 C111.8965625 201.60585938 110.793125 202.21171875 109.65625 202.8359375 C107.10944775 204.23405317 104.55770713 205.62197004 102 207 C102.94359375 207.09796875 103.8871875 207.1959375 104.859375 207.296875 C113.35003479 208.28574702 120.96902608 209.91921671 129 213 C129 213.66 129 214.32 129 215 C127.41800369 215.64910154 125.83434276 216.29414694 124.25 216.9375 C122.92742187 217.47697266 122.92742187 217.47697266 121.578125 218.02734375 C116.96977076 219.76595012 113.07909213 220.18607623 108.125 220.25 C106.33449219 220.28867187 106.33449219 220.28867187 104.5078125 220.328125 C100.57205914 219.9599699 98.32004194 219.12704637 95 217 C93.02 214.525 93.02 214.525 91 212 C79.615 217.445 79.615 217.445 68 223 C75.29847739 224.88682792 75.29847739 224.88682792 82.59814453 226.76904297 C87.45765374 228.03099863 92.26618566 229.31286202 97 231 C95.92598892 233.91517292 95.22189824 235.77810176 93 238 C84.99728711 237.87735306 77.24004453 234.41792373 69.89453125 231.53515625 C69.24766357 231.29063721 68.6007959 231.04611816 67.93432617 230.79418945 C66 230 66 230 64.16918945 228.99291992 C60.88036229 227.33804325 58.83688651 226.82958867 55.17163086 227.57592773 C51.90759336 228.65812336 48.74347378 229.88146739 45.5625 231.1875 C30.66186935 237.06067642 30.66186935 237.06067642 24 238 C20.9375 235.625 20.9375 235.625 19 233 C19.33 232.01 19.66 231.02 20 230 C21.93017578 229.23217773 21.93017578 229.23217773 24.4453125 228.68359375 C25.35796875 228.47669922 26.270625 228.26980469 27.2109375 228.05664062 C28.17257813 227.85232422 29.13421875 227.64800781 30.125 227.4375 C32.00290909 227.02090341 33.88052017 226.60296087 35.7578125 226.18359375 C37.10020996 225.88751221 37.10020996 225.88751221 38.46972656 225.58544922 C41.68766805 224.84088885 44.83737065 223.95054095 48 223 C44.90071748 220.50047403 41.73355301 218.78683893 38.140625 217.08203125 C37.02558594 216.55029297 35.91054687 216.01855469 34.76171875 215.47070312 C33.02341797 214.64989258 33.02341797 214.64989258 31.25 213.8125 C30.07566406 213.25369141 28.90132813 212.69488281 27.69140625 212.11914062 C24.79612962 210.74211881 21.89896415 209.36923722 19 208 C19.33 208.99 19.66 209.98 20 211 C17.49697228 214.94708217 15.4111453 216.61879512 11 218 C0.88352535 218.95112155 -7.99740481 217.68460836 -17 213 C-17 212.34 -17 211.68 -17 211 C-7.34731558 207.59511474 1.8590317 205.98936276 12 205 C11.49251221 204.77449463 10.98502441 204.54898926 10.4621582 204.31665039 C-17.26970114 191.88383104 -35.81813335 175.00442602 -47.07568359 146.53564453 C-49.87716048 138.85045201 -51.95716106 130.91482412 -54 123 C-55.09054688 123.19464844 -56.18109375 123.38929688 -57.3046875 123.58984375 C-61 124 -61 124 -64.125 122.5625 C-71.35661508 116.11693004 -73.56051416 108.43272837 -75 99 C-75.04366775 97.00047677 -75.05703385 94.99918662 -75 93 C-73.68 93.66 -72.36 94.32 -71 95 C-71 95.66 -71 96.32 -71 97 C-70.43539062 97.22945312 -69.87078125 97.45890625 -69.2890625 97.6953125 C-66.39155363 99.34679367 -64.58578467 101.38324604 -62.375 103.875 C-61.59898438 104.73867188 -60.82296875 105.60234375 -60.0234375 106.4921875 C-58.29728779 108.63154679 -57.08425043 110.49339953 -56 113 C-56.02320313 112.030625 -56.04640625 111.06125 -56.0703125 110.0625 C-56.50282929 84.05578979 -49.96922529 61.42298292 -37 39 C-38.98 39.495 -38.98 39.495 -41 40 C-44.82687725 35.57517318 -45.79060539 32.00242887 -45.58984375 26.15625 C-44.34498495 19.49501882 -40.97596971 11.5389392 -35.765625 7.09375 C-35.18296875 6.7328125 -34.6003125 6.371875 -34 6 C-30.91031496 9.08968504 -31.94299175 17.91692947 -31.93188477 21.99560547 C-31.94003953 24.9972695 -31.96440962 27.99854445 -32 31 C-27.60298037 25.33808431 -24.33023603 20.38773129 -22.80078125 13.32421875 C-20.89849015 7.80293484 -17.20119649 5.18684866 -12.125 2.6875 C-11.11695313 2.17574219 -10.10890625 1.66398437 -9.0703125 1.13671875 C-5.8230425 -0.0655148 -3.43207252 -0.22026734 0 0 Z M-34 32 C-33 34 -33 34 -33 34 Z M-44 58 C-43 60 -43 60 -43 60 Z M154 58 C155 60 155 60 155 60 Z " fill="#100B5C" transform="translate(185,421)"/>
<path d="M0 0 C21.12 0 42.24 0 64 0 C64 28.71 64 57.42 64 87 C42.88 87 21.76 87 0 87 C0 58.29 0 29.58 0 0 Z " fill="#C80E19" transform="translate(855,477)"/>
<path d="M0 0 C15 0 15 0 19.46484375 4.390625 C20.67623037 6.31082461 21.83257611 8.2666273 22.9375 10.25 C23.55520264 11.25313232 24.17290527 12.25626465 24.80932617 13.28979492 C26.0274689 15.27246371 27.22496366 17.26799672 28.39941406 19.27685547 C30.4184155 22.71186799 32.5877526 26.00750521 34.8125 29.3125 C35.68841797 30.66794922 35.68841797 30.66794922 36.58203125 32.05078125 C37.85991146 34.12171047 37.85991146 34.12171047 40 35 C40.2678833 34.43555176 40.5357666 33.87110352 40.81176758 33.28955078 C42.07178331 30.86168402 43.49178122 28.64121864 45.01171875 26.3671875 C45.90213867 25.03300781 45.90213867 25.03300781 46.81054688 23.671875 C47.42994141 22.74890625 48.04933594 21.8259375 48.6875 20.875 C49.28755859 19.97523438 49.88761719 19.07546875 50.50585938 18.1484375 C51.7212756 16.3311879 52.95306695 14.52478754 54.20068359 12.72949219 C56.05137876 10.03003967 56.05137876 10.03003967 57.49072266 7.09082031 C59.01953125 4.3203125 59.01953125 4.3203125 63 0 C67.95 0 72.9 0 78 0 C78 23.43 78 46.86 78 71 C72.39 71 66.78 71 61 71 C60.67 58.46 60.34 45.92 60 33 C52.48255846 42.91471842 52.48255846 42.91471842 48.75 49.6875 C46.67433093 52.65818234 45.60943983 53.80018366 42.140625 54.9375 C37.76124581 55.2861073 34.47839619 55.17086721 30.953125 52.37890625 C29.25 50.25 29.25 50.25 26 45 C23.36 41.04 20.72 37.08 18 33 C17.67 45.54 17.34 58.08 17 71 C11.39 71 5.78 71 0 71 C0 47.57 0 24.14 0 0 Z " fill="#100B5C" transform="translate(633,489)"/>
<path d="M0 0 C5.28 0 10.56 0 16 0 C16 24.75 16 49.5 16 75 C11.71 75 7.42 75 3 75 C2.34 73.68 1.68 72.36 1 71 C0.154375 71.61875 -0.69125 72.2375 -1.5625 72.875 C-8.49435252 77.43160235 -16.34287665 78.03027081 -24.359375 76.5703125 C-31.10387655 74.68650345 -36.57448408 70.82053808 -40.3515625 64.87109375 C-44.66847732 56.43913422 -45.37632246 47.29294427 -43.3515625 38.03515625 C-40.8935945 31.21797148 -37.01393351 26.34435978 -30.74609375 22.68359375 C-22.66889143 18.96263538 -14.25181299 18.73156155 -5.8125 21.4375 C-2.22413793 22.77586207 -2.22413793 22.77586207 -1 24 C-0.67 16.08 -0.34 8.16 0 0 Z M-23 37 C-26.93521339 41.36064187 -28.31179669 43.95980283 -28.21484375 49.90625 C-27.75937746 54.34497606 -25.79496512 57.18295252 -22.75 60.3125 C-18.22533537 63.08899875 -14.55639409 63.24150943 -9.375 62.4375 C-4.68262529 60.43889596 -2.30357945 57.60715889 0 53 C0.57425085 48.29302583 0.45554552 44.87855208 -1.75 40.625 C-5.80435778 35.89491593 -8.54871938 34.42657877 -14.75390625 33.9375 C-18.16988788 34.0325534 -20.22041129 35.06075206 -23 37 Z " fill="#100B5C" transform="translate(534,485)"/>
<path d="M0 0 C15.84 0 31.68 0 48 0 C48 4.62 48 9.24 48 14 C37.77 14 27.54 14 17 14 C17 18.62 17 23.24 17 28 C26.24 28 35.48 28 45 28 C45 32.62 45 37.24 45 42 C35.76 42 26.52 42 17 42 C17 46.95 17 51.9 17 57 C27.56 57 38.12 57 49 57 C49 61.62 49 66.24 49 71 C32.83 71 16.66 71 0 71 C0 47.57 0 24.14 0 0 Z " fill="#100B5C" transform="translate(433,489)"/>
<path d="M0 0 C1.13908813 0.28143356 2.27817627 0.56286713 3.45178223 0.85282898 C5.8431968 1.44697823 8.23328153 2.04650324 10.62207031 2.65112305 C14.29339902 3.57728356 17.9703606 4.47801467 21.6484375 5.37695312 C23.97433797 5.95811815 26.29987294 6.54074839 28.625 7.125 C29.72904175 7.39387527 30.8330835 7.66275055 31.97058105 7.93977356 C32.9825354 8.19981674 33.99448975 8.45985992 35.03710938 8.7277832 C36.37872131 9.06420586 36.37872131 9.06420586 37.74743652 9.40742493 C38.41859497 9.68934189 39.08975342 9.97125885 39.78125 10.26171875 C40.27625 11.74671875 40.27625 11.74671875 40.78125 13.26171875 C39.17868892 13.76684119 37.57413208 14.26563502 35.96875 14.76171875 C35.07542969 15.04015625 34.18210937 15.31859375 33.26171875 15.60546875 C30.78125 16.26171875 30.78125 16.26171875 27.78125 16.26171875 C28.27625 28.63671875 28.27625 28.63671875 28.78125 41.26171875 C27.13125 41.59171875 25.48125 41.92171875 23.78125 42.26171875 C24.11125 34.01171875 24.44125 25.76171875 24.78125 17.26171875 C19.83125 18.74671875 19.83125 18.74671875 14.78125 20.26171875 C14.70777344 21.43541016 14.70777344 21.43541016 14.6328125 22.6328125 C14.55804688 23.64472656 14.48328125 24.65664063 14.40625 25.69921875 C14.33664062 26.70855469 14.26703125 27.71789062 14.1953125 28.7578125 C14.05867188 29.58410156 13.92203125 30.41039062 13.78125 31.26171875 C10.89516737 32.70476006 9.30804396 31.72960496 6.21875 30.88671875 C-10.60741075 26.83803989 -27.56638429 27.98194925 -44.33203125 31.73828125 C-45.28464844 31.91101563 -46.23726562 32.08375 -47.21875 32.26171875 C-48.21875 31.26171875 -48.21875 31.26171875 -48.31640625 29.1953125 C-48.28385417 26.88411458 -48.25130208 24.57291667 -48.21875 22.26171875 C-43.59875 20.94171875 -38.97875 19.62171875 -34.21875 18.26171875 C-35.86875 18.61234375 -37.51875 18.96296875 -39.21875 19.32421875 C-47.6561387 21.11716385 -55.42379105 18.86119425 -63.59375 16.76171875 C-64.49480469 16.53613281 -65.39585937 16.31054688 -66.32421875 16.078125 C-72.9368826 14.40265245 -72.9368826 14.40265245 -75.21875 13.26171875 C-74.88875 12.27171875 -74.55875 11.28171875 -74.21875 10.26171875 C-72.14697266 9.40742493 -72.14697266 9.40742493 -69.3828125 8.7277832 C-68.3508374 8.46774002 -67.3188623 8.20769684 -66.25561523 7.93977356 C-65.12969971 7.67089828 -64.00378418 7.40202301 -62.84375 7.125 C-61.69011963 6.84069626 -60.53648926 6.55639252 -59.34790039 6.26347351 C-56.89801951 5.66308363 -54.44654082 5.06918287 -51.99365234 4.48120117 C-48.25819106 3.58369511 -44.5294251 2.66169761 -40.80078125 1.73632812 C-38.41963308 1.15606356 -36.03813276 0.57724179 -33.65625 0 C-31.99166748 -0.41242195 -31.99166748 -0.41242195 -30.29345703 -0.83317566 C-19.19295549 -3.46433163 -11.0247674 -2.78645332 0 0 Z M-27.21875 16.26171875 C-27.21875 16.59171875 -27.21875 16.92171875 -27.21875 17.26171875 C-25.23875 17.26171875 -23.25875 17.26171875 -21.21875 17.26171875 C-21.21875 16.93171875 -21.21875 16.60171875 -21.21875 16.26171875 C-23.19875 16.26171875 -25.17875 16.26171875 -27.21875 16.26171875 Z " fill="#C80D18" transform="translate(258.21875,454.73828125)"/>
<path d="M0 0 C5.28 0 10.56 0 16 0 C16 13.53 16 27.06 16 41 C26.7018576 40.34164079 26.7018576 40.34164079 30 35 C30.80332802 32.77539933 31.52873321 30.52160964 32.1875 28.25 C32.785625 26.1875 33.38375 24.125 34 22 C39.61 22 45.22 22 51 22 C46.14965464 41.40138143 46.14965464 41.40138143 41.21875 47.03515625 C40.8165625 47.68355469 40.414375 48.33195313 40 49 C41.14851776 52.56595636 42.87298493 55.64228434 44.8203125 58.828125 C45.35527344 59.70984375 45.89023437 60.5915625 46.44140625 61.5 C47.27478516 62.86125 47.27478516 62.86125 48.125 64.25 C49.23369533 66.06653514 50.34057208 67.88418194 51.4453125 69.703125 C52.18031982 70.90437012 52.18031982 70.90437012 52.93017578 72.12988281 C54 74 54 74 54 75 C37.90722193 76.36636795 37.90722193 76.36636795 33.64453125 73.3125 C32.10661254 70.93759068 31.04800236 68.625938 30 66 C29.05757337 64.34500689 28.09978137 62.69864529 27.125 61.0625 C25 57.27358491 25 57.27358491 25 55 C22.03 55 19.06 55 16 55 C16 61.6 16 68.2 16 75 C10.72 75 5.44 75 0 75 C0 50.25 0 25.5 0 0 Z " fill="#FDF9F9" transform="translate(860,485)"/>
<path d="M0 0 C4.99698539 3.74139769 9.07588641 9.71402922 10.1640625 15.90234375 C11.07977167 27.02166941 9.93349586 34.77021514 2.9765625 43.71484375 C-5.92710566 50.63991899 -14.71678443 52.84350544 -25.8359375 51.90234375 C-34.59862352 49.97571345 -41.08271122 45.93715949 -46.4375 38.75390625 C-50.72342771 31.54684345 -50.81249259 24.08211254 -49.8359375 15.90234375 C-47.60248106 7.81881865 -43.09814798 2.16504107 -35.88671875 -2.02734375 C-24.70736184 -7.86190336 -10.62583946 -6.35289551 0 0 Z M-28.8359375 11.90234375 C-32.77115089 16.26298562 -34.14773419 18.86214658 -34.05078125 24.80859375 C-33.59531496 29.24731981 -31.63090262 32.08529627 -28.5859375 35.21484375 C-24.06127287 37.9913425 -20.39233159 38.14385318 -15.2109375 37.33984375 C-10.51856279 35.34123971 -8.13951695 32.50950264 -5.8359375 27.90234375 C-5.40581931 23.69214837 -5.365974 20.0154152 -7.0234375 16.08984375 C-10.37734771 12.04202108 -13.01885414 9.78614838 -18.2734375 8.96484375 C-22.58120021 8.67145792 -25.22976701 9.38641085 -28.8359375 11.90234375 Z " fill="#100B5C" transform="translate(772.8359375,510.09765625)"/>
<path d="M0 0 C5.61 0 11.22 0 17 0 C17.03738281 2.39636719 17.07476563 4.79273438 17.11328125 7.26171875 C17.15954043 9.59180643 17.21075793 11.92173627 17.26245117 14.25170898 C17.2956311 15.86651963 17.32368458 17.48144431 17.34643555 19.09643555 C17.38011025 21.42285592 17.43242963 23.74823783 17.48828125 26.07421875 C17.49467117 26.79212082 17.5010611 27.51002289 17.50764465 28.24967957 C17.63579069 32.65407627 18.337017 35.47065107 21 39 C23.65499724 41.08606926 25.06750504 40.99879455 28.5 40.9375 C32.67136458 39.8201702 33.7610412 38.6167796 36 35 C37.15839043 31.52482871 37.22801218 28.3272998 37.31640625 24.70703125 C37.33718735 24.00100266 37.35796844 23.29497406 37.37937927 22.56755066 C37.44467491 20.31596449 37.50366647 18.06426338 37.5625 15.8125 C37.60570425 14.2844934 37.64931916 12.75649836 37.69335938 11.22851562 C37.8011075 7.48579311 37.90032855 3.74298121 38 0 C43.28 0 48.56 0 54 0 C54 17.82 54 35.64 54 54 C50.04 54 46.08 54 42 54 C41.505 52.02 41.505 52.02 41 50 C40.39671875 50.34933594 39.7934375 50.69867187 39.171875 51.05859375 C37.97304688 51.74115234 37.97304688 51.74115234 36.75 52.4375 C35.96109375 52.88996094 35.1721875 53.34242188 34.359375 53.80859375 C28.10432992 56.96718439 20.47211299 57.02514547 13.8125 55 C8.20959364 52.61336646 4.49791254 47.72347734 1.625 42.5 C0.11436286 36.45745145 -0.12267076 30.42234913 -0.09765625 24.21875 C-0.0962413 23.51979614 -0.09482635 22.82084229 -0.09336853 22.10070801 C-0.0878367 19.90042571 -0.07529777 17.70025077 -0.0625 15.5 C-0.05747616 13.99479315 -0.05291482 12.48958468 -0.04882812 10.984375 C-0.03874682 7.3228435 -0.01915922 3.66153984 0 0 Z " fill="#100B5C" transform="translate(563,506)"/>
<path d="M0 0 C4.87441675 4.00785377 9.05411426 9.1581499 10.8125 15.3125 C10.8125 16.3025 10.8125 17.2925 10.8125 18.3125 C8.24743576 18.47526553 5.69274578 18.59363984 3.125 18.6875 C2.0431543 18.76291016 2.0431543 18.76291016 0.93945312 18.83984375 C-4.38873735 18.98582157 -4.38873735 18.98582157 -6.74365234 17.00073242 C-7.96920934 15.4980792 -9.08440117 13.9072193 -10.1875 12.3125 C-14.02427489 9.86122715 -17.65912901 10.07800059 -22.03515625 10.71875 C-25.59643431 11.70117153 -27.09149331 13.32727835 -29.1875 16.3125 C-31.29826415 20.77720389 -31.47424908 24.38335323 -30.125 29.125 C-28.99054592 32.00324376 -28.29103894 33.22046539 -25.9375 35.3125 C-20.76995052 37.1916089 -17.03789817 37.9990566 -11.9375 35.6875 C-9.13128666 34.28439333 -8.3175866 33.59220697 -6.96484375 30.68359375 C-6.08505859 29.50990234 -6.08505859 29.50990234 -5.1875 28.3125 C-2.24656948 27.93390441 0.08894958 27.83474386 3 28 C3.74958984 28.02255859 4.49917969 28.04511719 5.27148438 28.06835938 C7.1193447 28.12720843 8.96617667 28.21689062 10.8125 28.3125 C9.99650648 35.94389395 7.5532842 41.12163145 1.66015625 46.1484375 C-6.46471571 51.8427922 -14.37995887 53.28099469 -24.1875 52.3125 C-31.80444881 50.62097015 -38.16689792 47.37511383 -43.1875 41.3125 C-47.59035526 33.73549328 -49.59435194 25.60195575 -47.65625 16.9375 C-45.06524032 8.60120799 -40.72793915 2.39945974 -33.03515625 -1.88671875 C-21.90015853 -7.03011316 -10.57646251 -5.59930368 0 0 Z " fill="#100B5C" transform="translate(838.1875,509.6875)"/>
<path d="M0 0 C3.21378924 3.21378924 5.13454543 6.26720011 5.26171875 10.87890625 C5.22498047 12.02166016 5.22498047 12.02166016 5.1875 13.1875 C2.78975255 13.32322155 0.39974755 13.42186868 -2 13.5 C-3.01030273 13.5628418 -3.01030273 13.5628418 -4.04101562 13.62695312 C-8.0648285 13.7250949 -9.5418261 13.43248672 -12.5703125 10.69140625 C-13.68019531 9.45197266 -13.68019531 9.45197266 -14.8125 8.1875 C-18.27394178 7.83548897 -20.67378812 7.61814406 -23.8125 9.1875 C-24.46805119 11.71483235 -24.46805119 11.71483235 -24.8125 14.1875 C-24.15765625 14.35765625 -23.5028125 14.5278125 -22.828125 14.703125 C1.04359798 21.0419441 1.04359798 21.0419441 5.31640625 28.03515625 C7.25084325 32.81486382 6.94399516 38.35598539 5 43.0625 C-0.12951645 49.07641583 -5.91434865 51.69900512 -13.7109375 52.4765625 C-21.70298771 52.70255878 -29.66474344 51.84003744 -36.25 46.9375 C-40.46293912 42.41629705 -42.00052855 38.28798178 -41.8125 32.1875 C-39.2066111 32.05255754 -36.60767889 31.95347701 -34 31.875 C-33.26201172 31.83310547 -32.52402344 31.79121094 -31.76367188 31.74804688 C-29.60546875 31.69921875 -29.60546875 31.69921875 -25.8125 32.1875 C-23.86328125 34.64453125 -23.86328125 34.64453125 -22.8125 37.1875 C-21.81192021 38.40761391 -21.81192021 38.40761391 -19.81640625 38.3203125 C-18.60791016 38.31644531 -18.60791016 38.31644531 -17.375 38.3125 C-16.57191406 38.31507813 -15.76882813 38.31765625 -14.94140625 38.3203125 C-12.75852069 38.32328326 -12.75852069 38.32328326 -10.8125 37.1875 C-11.3075 34.7125 -11.3075 34.7125 -11.8125 32.1875 C-13.6378125 31.56875 -13.6378125 31.56875 -15.5 30.9375 C-16.31339844 30.66164063 -17.12679687 30.38578125 -17.96484375 30.1015625 C-20.00544276 29.44655541 -22.06279944 28.8428945 -24.12890625 28.2734375 C-36.01027012 24.94827765 -36.01027012 24.94827765 -39.90234375 18.3359375 C-41.5721076 14.39443485 -41.33657581 10.38010645 -40.8125 6.1875 C-38.2879478 0.73446725 -35.04435691 -1.28999756 -29.8125 -3.8125 C-20.05062585 -7.07365707 -8.4785177 -5.46393363 0 0 Z " fill="#100B5C" transform="translate(961.8125,509.8125)"/>
<path d="M0 0 C61.38 0 122.76 0 186 0 C186 1.65 186 3.3 186 5 C124.62 5 63.24 5 0 5 C0 3.35 0 1.7 0 0 Z " fill="#202021" transform="translate(432,592)"/>
<path d="M0 0 C2.48141675 2.01581321 2.48141675 2.01581321 5.0078125 1.515625 C7.92746362 0.68143897 10.51163677 -0.43985125 13.25 -1.75 C22.06621466 -5.9563493 30.90371918 -6.85048532 40.3125 -3.625 C48.030955 -0.46846421 55.13381033 3.45581837 60.6875 9.75 C57.2034991 9.42337492 55.00314261 8.38220231 52.1875 6.4375 C43.86486956 1.04581474 33.55459121 -1.71231711 23.6875 -0.25 C19.18007891 1.03372274 14.87976205 2.65386898 10.6875 4.75 C9.55399466 6.76669827 9.55399466 6.76669827 8.6875 8.75 C2.73046875 9.23828125 2.73046875 9.23828125 0.6875 8.75 C-0.3268989 7.09205771 -1.32572353 5.42452977 -2.3125 3.75 C-10.11943522 -0.92344836 -19.47950778 -1.65496971 -28.19921875 0.4453125 C-33.86948178 2.32749186 -38.51075982 4.9441007 -43.2421875 8.578125 C-45.75905329 10.00276601 -47.46535323 9.96824818 -50.3125 9.75 C-47.33037803 5.52040621 -44.03937592 3.02194072 -39.5625 0.5625 C-38.93561279 0.21445312 -38.30872559 -0.13359375 -37.6628418 -0.4921875 C-26.1664251 -6.70855888 -11.08785264 -8.14617745 0 0 Z " fill="#C80D18" transform="translate(236.3125,568.25)"/>
<path d="M0 0 C1.78593224 1.62357476 2.90542224 2.75409783 3.78125 5.03125 C4.85677626 7.23079557 4.85677626 7.23079557 7.3828125 7.828125 C8.74019531 8.03695312 8.74019531 8.03695312 10.125 8.25 C11.49011719 8.47429688 11.49011719 8.47429688 12.8828125 8.703125 C13.58148438 8.80109375 14.28015625 8.8990625 15 9 C14.55527344 9.38929688 14.11054688 9.77859375 13.65234375 10.1796875 C10.89881636 12.90185353 9.08402707 14.71345215 8.82421875 18.69140625 C9.09567048 21.16972525 9.46139839 23.5665 10 26 C4.23220974 24.16479401 4.23220974 24.16479401 2.0625 22.625 C0.02183799 21.75699059 0.02183799 21.75699059 -1.73046875 22.80078125 C-3.49251784 23.85801071 -5.24660421 24.92848035 -7 26 C-7.66 25.67 -8.32 25.34 -9 25 C-8.78730469 24.14728516 -8.78730469 24.14728516 -8.5703125 23.27734375 C-7.60965109 18.38703396 -7.60965109 18.38703396 -9.26953125 13.84375 C-10.7739001 12.12447131 -12.30375551 10.52907836 -14 9 C-13.32453125 8.93683594 -12.6490625 8.87367188 -11.953125 8.80859375 C-6.6568537 8.22838874 -6.6568537 8.22838874 -2.4453125 5.30859375 C-1.21982028 3.18470931 -1.21982028 3.18470931 0 0 Z " fill="#FFDC5C" transform="translate(241,592)"/>
<path d="M0 0 C6.57195853 0.61853727 12.02600279 2.72070299 17.8125 5.75 C18.76298218 6.23436523 18.76298218 6.23436523 19.73266602 6.72851562 C24.22844549 9.17374486 27.0011025 11.84167745 30 16 C30.8125 18.875 30.8125 18.875 31 21 C26.62773589 23.25237848 23.74486629 23.20632194 19 22 C9.11561326 17.38345503 4.38328236 9.63934219 0 0 Z " fill="#100B5C" transform="translate(121,579)"/>
<path d="M0 0 C-3.17309354 8.45169773 -8.32090927 16.04845516 -16 21 C-20.49954181 22.84870818 -23.82391184 23.28886376 -28.5625 22.125 C-29.366875 21.75375 -30.17125 21.3825 -31 21 C-30.48892176 16.52806538 -29.02594861 14.29514338 -26 11 C-23.77630806 9.48800025 -21.65685974 8.15747113 -19.3125 6.875 C-18.6939917 6.52953125 -18.0754834 6.1840625 -17.43823242 5.828125 C-11.93856802 2.82739701 -6.3784078 0 0 0 Z " fill="#100B5C" transform="translate(361,581)"/>
<path d="M0 0 C2.8125 1.3125 2.8125 1.3125 4.8125 3.3125 C4.8125 4.3025 4.8125 5.2925 4.8125 6.3125 C3.4925 5.9825 2.1725 5.6525 0.8125 5.3125 C0.8125 4.6525 0.8125 3.9925 0.8125 3.3125 C-1.1675 3.3125 -3.1475 3.3125 -5.1875 3.3125 C-5.1875 4.6325 -5.1875 5.9525 -5.1875 7.3125 C-4.26517578 7.47685547 -4.26517578 7.47685547 -3.32421875 7.64453125 C-2.51597656 7.80308594 -1.70773437 7.96164062 -0.875 8.125 C-0.07449219 8.27582031 0.72601562 8.42664063 1.55078125 8.58203125 C4.06680815 9.39463407 5.03844766 10.41358767 6.8125 12.3125 C7.4725 12.3125 8.1325 12.3125 8.8125 12.3125 C9.245625 12.9725 9.67875 13.6325 10.125 14.3125 C11.66833656 16.61592071 11.66833656 16.61592071 14.5 16.5625 C15.263125 16.48 16.02625 16.3975 16.8125 16.3125 C17.1425 14.9925 17.4725 13.6725 17.8125 12.3125 C17.18601562 12.19132813 16.55953125 12.07015625 15.9140625 11.9453125 C14.68816406 11.69394531 14.68816406 11.69394531 13.4375 11.4375 C12.21933594 11.19386719 12.21933594 11.19386719 10.9765625 10.9453125 C8.8125 10.3125 8.8125 10.3125 6.8125 8.3125 C7.1875 4.6875 7.1875 4.6875 7.8125 1.3125 C14.01674107 -0.99888393 14.01674107 -0.99888393 17.6875 0.4375 C19.9496426 2.43350817 20.50724204 3.36167303 20.8125 6.3125 C18.55056201 5.827799 16.74284549 5.27562408 14.6875 4.1875 C14.06875 3.89875 13.45 3.61 12.8125 3.3125 C11.8225 3.8075 11.8225 3.8075 10.8125 4.3125 C10.8125 4.9725 10.8125 5.6325 10.8125 6.3125 C11.52277344 6.53164063 12.23304688 6.75078125 12.96484375 6.9765625 C15.72151403 7.92767174 18.25776956 8.90329167 20.8125 10.3125 C22.1875 13.3125 22.1875 13.3125 21.8125 16.3125 C20.3125 18.6875 20.3125 18.6875 17.8125 20.3125 C12.79507813 20.95108096 9.89168916 20.27918302 5.8125 17.3125 C5.296875 17.8075 4.78125 18.3025 4.25 18.8125 C0.84868625 20.90561615 -1.25822743 20.86397685 -5.1875 20.3125 C-8.125 17.9375 -8.125 17.9375 -10.1875 15.3125 C-10.1875 14.6525 -10.1875 13.9925 -10.1875 13.3125 C-9.1975 12.9825 -8.2075 12.6525 -7.1875 12.3125 C-6.795625 12.9725 -6.40375 13.6325 -6 14.3125 C-4.33333333 16.60416667 -4.33333333 16.60416667 -1.5 16.5625 C-0.736875 16.48 0.02625 16.3975 0.8125 16.3125 C1.1425 15.3225 1.4725 14.3325 1.8125 13.3125 C1.18601562 13.13074219 0.55953125 12.94898438 -0.0859375 12.76171875 C-0.90320313 12.51035156 -1.72046875 12.25898437 -2.5625 12 C-3.37460937 11.75636719 -4.18671875 11.51273438 -5.0234375 11.26171875 C-7.1875 10.3125 -7.1875 10.3125 -9.1875 7.3125 C-9.125 4.8125 -9.125 4.8125 -8.1875 2.3125 C-5.165766 -0.36389297 -3.98837347 -0.86023741 0 0 Z " fill="#100B5C" transform="translate(941.1875,586.6875)"/>
<path d="M0 0 C3.83318619 -0.08789644 7.66610928 -0.14069087 11.5 -0.1875 C13.11648437 -0.22520508 13.11648437 -0.22520508 14.765625 -0.26367188 C21.67491836 -0.32686663 28.2064715 -0.26970652 33.71679688 4.47973633 C35 6 35 6 34.9375 8 C33.71364173 10.61089764 32.44990514 11.4881782 30 13 C20.84864628 14.77789854 13.66429951 11.80431754 6 7 C3.73726239 5.43642289 1.95530039 3.95530039 0 2 C0 1.34 0 0.68 0 0 Z " fill="#100B5C" transform="translate(140,610)"/>
<path d="M0 0 C10.34625323 -0.36950904 10.34625323 -0.36950904 13.3359375 1.3203125 C15 3 15 3 15.375 6.0625 C15 9 15 9 13 11 C12.83318891 14.08347826 12.83318891 14.08347826 13 17 C14.96214906 16.52659799 14.96214906 16.52659799 17 15 C18.25411811 12.43998827 19.28696704 10.03808094 20.25 7.375 C20.518125 6.66859375 20.78625 5.9621875 21.0625 5.234375 C21.72091039 3.4942904 22.36214454 1.74772397 23 0 C25.29296875 0.00390625 25.29296875 0.00390625 28 1 C29.38303225 3.70906317 30.37660974 6.08044186 31.3125 8.9375 C31.57611328 9.67935547 31.83972656 10.42121094 32.11132812 11.18554688 C34 16.59646916 34 16.59646916 34 19 C32.0625 18.625 32.0625 18.625 30 18 C29.67 17.34 29.34 16.68 29 16 C27.10466658 15.53476937 27.10466658 15.53476937 24.9375 15.375 C23.638125 15.25125 22.33875 15.1275 21 15 C20.67 16.32 20.34 17.64 20 19 C17.03 19.33 14.06 19.66 11 20 C10.608125 18.865625 10.21625 17.73125 9.8125 16.5625 C8.41389118 12.79660949 8.41389118 12.79660949 5.3125 12.0625 C4.549375 12.041875 3.78625 12.02125 3 12 C3 14.31 3 16.62 3 19 C2.01 19 1.02 19 0 19 C0 12.73 0 6.46 0 0 Z M3 3 C3 4.98 3 6.96 3 9 C5.31 9 7.62 9 10 9 C10.66 7.68 11.32 6.36 12 5 C10.04366025 2.58878141 10.04366025 2.58878141 6.375 2.875 C4.704375 2.936875 4.704375 2.936875 3 3 Z M25 5 C23.515 8.465 23.515 8.465 22 12 C23.98 12 25.96 12 28 12 C27.34 9.69 26.68 7.38 26 5 C25.67 5 25.34 5 25 5 Z " fill="#100B5C" transform="translate(650,587)"/>
<path d="M0 0 C1.11310547 0.00902344 2.22621094 0.01804687 3.37304688 0.02734375 C6.10309023 0.0507776 8.8326801 0.083586 11.5625 0.125 C6.78122696 6.61387055 -0.46090227 11.46320881 -8.4375 13.125 C-13.15855884 13.54583993 -17.09885155 13.69870648 -21.5 11.8125 C-23.4375 10.125 -23.4375 10.125 -24.4375 7.125 C-17.51261417 -0.84911096 -9.88321983 -0.15250072 0 0 Z " fill="#100B5C" transform="translate(331.4375,611.875)"/>
<path d="M0 0 C3.9464514 5.91967711 3.79813845 13.77677923 2.50390625 20.625 C1.04920787 26.14792265 -0.56823065 29.38460922 -5 33 C-5.495 33.495 -5.495 33.495 -6 34 C-7.66617115 34.04063832 -9.33388095 34.042721 -11 34 C-13.06040084 29.87919832 -12.5207663 25.00345763 -11.38671875 20.640625 C-8.62913632 13.20608559 -4.28084801 6.62908018 0 0 Z " fill="#100B5C" transform="translate(365,483)"/>
<path d="M0 0 C8.86699937 1.21861112 18.38344247 8.41902713 23.875 15.375 C25.30232202 18.70541805 25.21087295 21.41515985 25 25 C21.20419824 26.26526725 18.50788437 26.0133793 14.89453125 24.25 C6.46793284 18.69018249 2.89311398 10.34698362 0 1 C0 0.67 0 0.34 0 0 Z " fill="#100B5C" transform="translate(112,548)"/>
<path d="M0 0 C0.66 0 1.32 0 2 0 C3.27571484 2.1847753 4.54560673 4.37261619 5.8125 6.5625 C6.34713867 7.47612305 6.34713867 7.47612305 6.89257812 8.40820312 C13.45332762 19.78418161 13.45332762 19.78418161 13.25 26.25 C13.23453125 27.08015625 13.2190625 27.9103125 13.203125 28.765625 C13 31 13 31 12 34 C7.40134172 33.18847207 5.55674092 32.55674092 2.1875 29.1875 C-2.9315922 21.01729324 -2.36146911 11.23680774 -0.5078125 2.16796875 C-0.34023437 1.45253906 -0.17265625 0.73710937 0 0 Z " fill="#100B5C" transform="translate(116,482)"/>
<path d="M0 0 C5.12169961 4.18247676 6.41538859 12.11741769 7.359375 18.38671875 C7.59146727 24.2934669 5.72664207 29.07602741 1.8125 33.4375 C1.214375 33.953125 0.61625 34.46875 0 35 C-2.65354511 34.02703346 -3.79877896 33.34207577 -5.25 30.875 C-7.14863073 23.59691553 -5.54028728 17.11824252 -3.5625 10.0625 C-3.33240234 9.20076172 -3.10230469 8.33902344 -2.86523438 7.45117188 C-1.15295252 1.15295252 -1.15295252 1.15295252 0 0 Z " fill="#100B5C" transform="translate(351,454)"/>
<path d="M0 0 C2 1 2 1 3.03515625 3.765625 C3.54369141 5.49039062 3.54369141 5.49039062 4.0625 7.25 C4.40410156 8.38953125 4.74570313 9.5290625 5.09765625 10.703125 C7.1161262 18.07796759 8.49969601 25.37573465 5.5 32.625 C5.005 33.40875 4.51 34.1925 4 35 C0.17753637 34.45393377 -1.58848176 32.97420582 -4 30 C-6.99200633 24.30094032 -6.17556931 18.12765503 -5 12 C-3.57774144 7.8735788 -1.88957254 3.93254211 0 0 Z " fill="#100B5C" transform="translate(130,452)"/>
<path d="M0 0 C-2.28319768 7.30623256 -4.842416 13.28658615 -10 19 C-10.46277344 19.52851562 -10.92554688 20.05703125 -11.40234375 20.6015625 C-14.43107932 23.60512852 -16.76472849 24.29320295 -20.875 24.3125 C-22.25164591 24.23299075 -23.62790336 24.13720966 -25 24 C-25.52236287 20.41808316 -25.71066374 18.1915462 -23.828125 15.03515625 C-19.05323825 9.29392337 -7.93696829 -2.6456561 0 0 Z " fill="#100B5C" transform="translate(370,551)"/>
<path d="M0 0 C1.8975 -0.061875 3.795 -0.12375 5.75 -0.1875 C7.35101562 -0.23970703 7.35101562 -0.23970703 8.984375 -0.29296875 C12.30027855 0.02917214 13.59016673 0.77148914 16 3 C15.25 9.75 15.25 9.75 13 12 C13.66 13.32 14.32 14.64 15 16 C15.66 16 16.32 16 17 16 C17.33 10.72 17.66 5.44 18 0 C22.29 0 26.58 0 31 0 C31 0.99 31 1.98 31 3 C27.7 3 24.4 3 21 3 C21 4.65 21 6.3 21 8 C23.64 8 26.28 8 29 8 C29 8.99 29 9.98 29 11 C26.36 11 23.72 11 21 11 C21 13.64 21 16.28 21 19 C18.03 19.33 15.06 19.66 12 20 C11.62875 18.865625 11.2575 17.73125 10.875 16.5625 C10.13362127 14.6185869 10.13362127 14.6185869 9 13 C5.91630113 11.94250443 5.91630113 11.94250443 3 12 C3 14.31 3 16.62 3 19 C2.01 19 1.02 19 0 19 C0 12.73 0 6.46 0 0 Z M3 3 C3 4.98 3 6.96 3 9 C5.64 9 8.28 9 11 9 C11.66 7.68 12.32 6.36 13 5 C11.23863645 2.81668311 11.23863645 2.81668311 9.0546875 2.8046875 C6.02734375 2.90234375 6.02734375 2.90234375 3 3 Z " fill="#100B5C" transform="translate(804,587)"/>
<path d="M0 0 C2.43574584 2.43574584 2.38908762 3.45341028 2.77783203 6.81689453 C2.89780548 7.81778107 3.01777893 8.8186676 3.14138794 9.84988403 C3.26230804 10.93325043 3.38322815 12.01661682 3.5078125 13.1328125 C3.70333206 14.79327103 3.70333206 14.79327103 3.90280151 16.48727417 C4.31833098 20.03229023 4.72178885 23.5785638 5.125 27.125 C5.40415554 29.52483189 5.68409338 31.92457292 5.96484375 34.32421875 C6.65231913 40.21512052 7.32988169 46.10709996 8 52 C3.99741639 50.49799097 1.31520387 48.70239346 -2 46 C-13.32987781 39.04357243 -24.37022872 34.68593462 -37.78125 37.60546875 C-41.72886195 38.74911515 -45.35648027 40.09109444 -49 42 C-47.802257 38.40677099 -46.3487067 37.65736186 -43.08984375 35.91796875 C-34.40164935 32.10165906 -25.31992449 32.31323158 -16.25 34.5625 C-14.97640625 34.85253906 -13.7028125 35.14257812 -12.390625 35.44140625 C-6.43565903 37.21958545 -1.2466123 40.75186204 4 44 C3.91435791 43.16452637 3.82871582 42.32905273 3.74047852 41.46826172 C3.41635971 38.29623067 3.09417376 35.1240102 2.77319336 31.95166016 C2.63526648 30.59220936 2.49662246 29.23283109 2.35717773 27.87353516 C1.40535747 18.5889924 0.60918358 9.31297334 0 0 Z " fill="#100B5C" transform="translate(292,523)"/>
<path d="M0 0 C0.33 0 0.66 0 1 0 C0.40166777 14.37571914 -0.66066667 28.67478708 -2 43 C-0.33324219 42.16855469 -0.33324219 42.16855469 1.3671875 41.3203125 C17.02143865 33.64113439 17.02143865 33.64113439 25 33 C26.11375 32.89751953 26.11375 32.89751953 27.25 32.79296875 C35.70663158 32.39656414 43.3061961 34.89157071 50 40 C49.505 40.99 49.505 40.99 49 42 C48.48050781 41.72285156 47.96101563 41.44570313 47.42578125 41.16015625 C38.49604029 36.52197287 29.40038504 35.64650659 19.55078125 38.11328125 C11.18261632 41.0222758 3.21434175 45.33242454 -3.64453125 50.93359375 C-5 52 -5 52 -6 52 C-5.38057851 40.62004001 -3.97004539 29.41059175 -2.4375 18.125 C-2.20078097 16.35812524 -1.96445035 14.59119841 -1.72851562 12.82421875 C-1.15680834 8.54886705 -0.57988955 4.27424925 0 0 Z " fill="#100B5C" transform="translate(189,523)"/>
<path d="M0 0 C0.66 0.33 1.32 0.66 2 1 C3.95666787 9.54160783 4.58736665 19.2997774 0 27 C-2.1875 29.4375 -2.1875 29.4375 -4 31 C-7.16115776 29.63016497 -7.9927092 29.0109362 -10 26 C-11.33235264 18.28474866 -8.69473876 11.94352013 -4.3984375 5.65625 C-2.9710572 3.7350367 -1.5146162 1.85288049 0 0 Z " fill="#100B5C" transform="translate(151,539)"/>
<path d="M0 0 C6.99999131 3.42856717 13.02243365 8.59170094 16 16 C16.265625 18.21875 16.265625 18.21875 16.25 20.5 C16.25515625 21.2528125 16.2603125 22.005625 16.265625 22.78125 C15.97250404 25.2296721 15.21816769 26.87304054 14 29 C10.04140623 28.17145712 8.16429926 27.16812017 5.3125 24.25 C0.81631483 17.36068402 -0.23313092 8.06142172 0 0 Z " fill="#100B5C" transform="translate(331,516)"/>
<path d="M0 0 C0.45347458 9.22064974 -0.70108929 18.8012449 -7 26 C-10.25 27.875 -10.25 27.875 -13 29 C-15.65085745 26.34914255 -16.00614082 24.9365449 -16.375 21.125 C-16.05885379 13.99853746 -11.89367218 8.85838127 -7 4 C-1.93255132 0 -1.93255132 0 0 0 Z " fill="#100B5C" transform="translate(151,514)"/>
<path d="M0 0 C6.41547001 4.61214368 10.03465555 11.07130477 11.5546875 18.83203125 C11.72809633 22.23390444 11.76936742 24.82876369 9.86328125 27.73046875 C8.5 29.125 8.5 29.125 6 31 C1.07953101 28.07431574 -0.1343465 24.88169796 -1.5 19.58203125 C-2.81896194 12.77082937 -1.72203112 6.64212003 0 0 Z " fill="#100B5C" transform="translate(330,541)"/>
<path d="M0 0 C-2.03124804 8.53480536 -5.25384251 15.25384251 -11.5 21.5 C-14.36347178 23.21808307 -16.69464375 23.692525 -20 24 C-21.55944339 20.88111322 -21.28316275 18.4545855 -21 15 C-18.0233723 7.62314004 -12.52545075 4.03475154 -5.40234375 0.83203125 C-3 0 -3 0 0 0 Z " fill="#100B5C" transform="translate(156,491)"/>
<path d="M0 0 C-4.87243127 6.24670676 -10.34287041 11.44762347 -18 14 C-19.51861755 14.09203743 -21.04110426 14.13001284 -22.5625 14.125 C-23.74005859 14.12886719 -23.74005859 14.12886719 -24.94140625 14.1328125 C-27 14 -27 14 -29 13 C-28.92736568 9.94935862 -28.60619794 7.75069862 -26.65625 5.3359375 C-19.18995184 -1.55341944 -9.68132475 -2.42033119 0 0 Z " fill="#100B5C" transform="translate(182,450)"/>
<path d="M0 0 C6.86818082 0.5283216 13.30264338 3.7602026 17.9375 8.875 C20.20194449 12.30597651 21.33612146 14.94296446 22 19 C21.125 21.9375 21.125 21.9375 20 24 C15.06036644 23.5404992 12.47820102 22.56515605 9 19 C4.79343603 13.06383358 1.92824912 7.00258891 0 0 Z " fill="#100B5C" transform="translate(326,493)"/>
<path d="M0 0 C0.26667539 2.83727325 0.34791234 5.45383045 0.29296875 8.2890625 C0.28872391 9.10748627 0.28447906 9.92591003 0.28010559 10.76913452 C0.26328679 13.38808836 0.22562974 16.00627802 0.1875 18.625 C0.17245726 20.3984264 0.15876814 22.17186484 0.14648438 23.9453125 C0.11337292 28.2971703 0.06156952 32.64845551 0 37 C-0.99 36.505 -0.99 36.505 -2 36 C-2.30723551 33.5825568 -2.4904811 31.25274883 -2.60546875 28.82421875 C-2.70235538 27.34170335 -2.80070951 25.85928325 -2.90039062 24.37695312 C-3.04882721 22.03361791 -3.18731794 19.6912877 -3.30004883 17.34594727 C-3.41338313 15.0857034 -3.56863237 12.83144012 -3.73046875 10.57421875 C-3.7652961 9.52713997 -3.7652961 9.52713997 -3.80082703 8.45890808 C-4.02908187 5.63290914 -4.34407881 3.56363768 -6.55014038 1.66795349 C-15.2637282 -3.44058363 -26.23634231 -3.13325964 -35.8203125 -0.7109375 C-39.68564181 0.54979715 -43.34851325 2.22173459 -47 4 C-46 1 -46 1 -43.41796875 -0.5703125 C-41.81888672 -1.33988281 -41.81888672 -1.33988281 -40.1875 -2.125 C-39.12917969 -2.64320313 -38.07085937 -3.16140625 -36.98046875 -3.6953125 C-25.08339847 -8.90320434 -10.62529177 -7.08352785 0 0 Z " fill="#100B5C" transform="translate(240,507)"/>
<path d="M0 0 C0.495 0.99 0.495 0.99 1 2 C0.34 1.731875 -0.32 1.46375 -1 1.1875 C-1.99 0.795625 -2.98 0.40375 -4 0 C-4.62777344 -0.25265625 -5.25554687 -0.5053125 -5.90234375 -0.765625 C-17.01141504 -5.1154341 -27.74563936 -5.38580454 -38.91796875 -1.0703125 C-41.1569568 -0.17859286 -41.1569568 -0.17859286 -42 2 C-42.21065321 3.87448438 -42.36866025 5.75501305 -42.5 7.63671875 C-42.5825 8.77173828 -42.665 9.90675781 -42.75 11.07617188 C-42.8325 12.26791016 -42.915 13.45964844 -43 14.6875 C-44.00041271 28.90430252 -44.00041271 28.90430252 -45 35 C-45.33 35 -45.66 35 -46 35 C-46.19815605 29.82241114 -46.34309889 24.64703814 -46.43945312 19.46655273 C-46.47962241 17.70574497 -46.53417284 15.94520306 -46.60351562 14.18530273 C-47.16368104 -0.39959224 -47.16368104 -0.39959224 -44.359375 -4.25634766 C-42.23468699 -5.64368506 -40.45369582 -6.38585113 -38 -7 C-37.16726562 -7.26167969 -36.33453125 -7.52335937 -35.4765625 -7.79296875 C-22.43202228 -8.88344293 -10.72161484 -8.46443276 0 0 Z " fill="#100B5C" transform="translate(289,509)"/>
<path d="M0 0 C1.9375 2.625 1.9375 2.625 3 5 C1.25 5.75 1.25 5.75 -1 6 C-1.61875 5.34 -2.2375 4.68 -2.875 4 C-3.57625 3.34 -4.2775 2.68 -5 2 C-8.19954954 2.14349347 -8.19954954 2.14349347 -11 3 C-11.08131463 4.43655854 -11.13933559 5.8744483 -11.1875 7.3125 C-11.22230469 8.11300781 -11.25710938 8.91351562 -11.29296875 9.73828125 C-11.17421772 12.05667089 -11.17421772 12.05667089 -9.7109375 13.796875 C-7.86278417 15.34770181 -7.86278417 15.34770181 -4.4375 14.9375 C-0.93531437 14.37693916 -0.93531437 14.37693916 0.4375 11.9375 C0.623125 11.298125 0.80875 10.65875 1 10 C1.99 10.33 2.98 10.66 4 11 C3.69209738 13.84809926 3.34521809 15.58286148 1.5 17.8125 C-2.32496041 19.6293562 -5.8514515 19.78386121 -10 19 C-13.38400069 16.60299951 -14.68027081 15.00181812 -15.9375 11.0625 C-16.02413123 6.8175696 -15.21036538 3.59548163 -12.625 0.1875 C-8.31789272 -2.96000147 -4.79989344 -1.91995737 0 0 Z " fill="#100B5C" transform="translate(866,588)"/>
<path d="M0 0 C2 3 2 3 2 6 C1.01 6 0.02 6 -1 6 C-1.66 5.01 -2.32 4.02 -3 3 C-5.9812093 1.80751628 -7.97786398 2.02859914 -11 3 C-11.81652673 6.78571484 -12.27022644 9.25290336 -10.9375 12.9375 C-9.11815769 15.29191455 -9.11815769 15.29191455 -6 15.5 C-2.79401117 14.96566853 -1.8779677 14.56985054 0 12 C0.33 11.34 0.66 10.68 1 10 C1.99 10.33 2.98 10.66 4 11 C3.12269491 13.70502403 2.28331029 15.68400006 0.375 17.8125 C-3.07724824 19.53862412 -6.26676791 19.63701976 -10 19 C-12.9375 17.5625 -12.9375 17.5625 -15 15 C-16.3623456 10.54064516 -16.31152807 7.00788495 -14.9375 2.5625 C-10.74640034 -2.98056729 -6.041812 -2.43996254 0 0 Z " fill="#100B5C" transform="translate(700,588)"/>
<path d="M0 0 C3 3.2 3 3.2 3 6 C1.0625 5.625 1.0625 5.625 -1 5 C-1.33 4.34 -1.66 3.68 -2 3 C-4.32024404 1.98546047 -4.32024404 1.98546047 -7 2 C-9.54002013 3.37283423 -9.54002013 3.37283423 -11 6 C-10.85718492 11.05692899 -10.85718492 11.05692899 -8 15 C-5.0850745 15.5838196 -5.0850745 15.5838196 -2 15 C0.40406384 12.62157423 0.40406384 12.62157423 2 10 C2.99 10.33 3.98 10.66 5 11 C4.12269491 13.70502403 3.28331029 15.68400006 1.375 17.8125 C-2.0574817 19.52874085 -5.28528802 19.68545281 -9 19 C-11.8100346 17.20636089 -13.50940468 15.98119065 -15 13 C-15.27339852 8.83067253 -15.39691838 6.01434696 -13.875 2.125 C-9.75434513 -2.54507552 -5.39061069 -2.63540967 0 0 Z " fill="#100B5C" transform="translate(740,588)"/>
<path d="M0 0 C3.46634296 1.65726616 4.14614643 4.98247082 5.390625 8.3984375 C5.65875 9.08421875 5.926875 9.77 6.203125 10.4765625 C7.3384155 13.45380391 8.140625 15.81314942 8.140625 19.0234375 C6.820625 18.6934375 5.500625 18.3634375 4.140625 18.0234375 C4.140625 17.0334375 4.140625 16.0434375 4.140625 15.0234375 C1.170625 15.0234375 -1.799375 15.0234375 -4.859375 15.0234375 C-5.189375 16.3434375 -5.519375 17.6634375 -5.859375 19.0234375 C-6.849375 19.0234375 -7.839375 19.0234375 -8.859375 19.0234375 C-8.17408986 14.88057733 -6.88047057 11.18229937 -5.359375 7.2734375 C-4.9159375 6.12359375 -4.4725 4.97375 -4.015625 3.7890625 C-2.44437882 0.0308115 -2.44437882 0.0308115 0 0 Z M-0.859375 4.0234375 C-1.519375 6.6634375 -2.179375 9.3034375 -2.859375 12.0234375 C-1.209375 12.0234375 0.440625 12.0234375 2.140625 12.0234375 C1.480625 9.3834375 0.820625 6.7434375 0.140625 4.0234375 C-0.189375 4.0234375 -0.519375 4.0234375 -0.859375 4.0234375 Z " fill="#100B5C" transform="translate(922.859375,586.9765625)"/>
<path d="M0 0 C4.62 0 9.24 0 14 0 C14 0.99 14 1.98 14 3 C10.37 3 6.74 3 3 3 C3 4.65 3 6.3 3 8 C6.3 8 9.6 8 13 8 C13 8.99 13 9.98 13 11 C9.7 11 6.4 11 3 11 C3 12.98 3 14.96 3 17 C6.63 17 10.26 17 14 17 C14 17.66 14 18.32 14 19 C9.38 19 4.76 19 0 19 C0 12.73 0 6.46 0 0 Z " fill="#100B5C" transform="translate(836,587)"/>
<path d="M0 0 C4.62 0 9.24 0 14 0 C14 0.99 14 1.98 14 3 C10.37 3 6.74 3 3 3 C3 4.65 3 6.3 3 8 C6.3 8 9.6 8 13 8 C13 8.99 13 9.98 13 11 C9.7 11 6.4 11 3 11 C3 12.98 3 14.96 3 17 C6.63 17 10.26 17 14 17 C14 17.66 14 18.32 14 19 C9.38 19 4.76 19 0 19 C0 12.73 0 6.46 0 0 Z " fill="#100B5C" transform="translate(789,587)"/>
<path d="M0 0 C10.34909307 -0.36961047 10.34909307 -0.36961047 13.33203125 1.32421875 C15 3 15 3 15.4375 6 C14.95220083 9.32776576 14.61982205 10.03513346 12 12 C9.73828125 12.29296875 9.73828125 12.29296875 7.3125 12.1875 C6.10013672 12.14689453 6.10013672 12.14689453 4.86328125 12.10546875 C4.24839844 12.07066406 3.63351562 12.03585937 3 12 C3 14.31 3 16.62 3 19 C2.01 19 1.02 19 0 19 C0 12.73 0 6.46 0 0 Z M3 3 C3 4.98 3 6.96 3 9 C5.31 9 7.62 9 10 9 C10.66 7.68 11.32 6.36 12 5 C10.04366025 2.58878141 10.04366025 2.58878141 6.375 2.875 C4.704375 2.936875 4.704375 2.936875 3 3 Z " fill="#100B5C" transform="translate(773,587)"/>
<path d="M0 0 C10.17966102 -0.48474576 10.17966102 -0.48474576 13.75 1.625 C15 4 15 4 14.9375 7.125 C14 10 14 10 11 12 C8.95703125 12.1953125 8.95703125 12.1953125 6.8125 12.125 C4.9253125 12.063125 4.9253125 12.063125 3 12 C3 14.31 3 16.62 3 19 C2.01 19 1.02 19 0 19 C0 12.73 0 6.46 0 0 Z M3 3 C3 4.98 3 6.96 3 9 C5.31 9 7.62 9 10 9 C10.38218767 7.34385343 10.71395102 5.67542976 11 4 C9.81575674 2.58422523 9.81575674 2.58422523 6.4375 2.9375 C4.7359375 2.9684375 4.7359375 2.9684375 3 3 Z " fill="#100B5C" transform="translate(899,587)"/>
<path d="M0 0 C10.34909307 -0.36961047 10.34909307 -0.36961047 13.33203125 1.32421875 C15 3 15 3 15.4375 6 C14.95220083 9.32776576 14.61982205 10.03513346 12 12 C9.73828125 12.29296875 9.73828125 12.29296875 7.3125 12.1875 C6.10013672 12.14689453 6.10013672 12.14689453 4.86328125 12.10546875 C4.24839844 12.07066406 3.63351562 12.03585937 3 12 C3 14.31 3 16.62 3 19 C2.01 19 1.02 19 0 19 C0 12.73 0 6.46 0 0 Z M3 3 C3 4.98 3 6.96 3 9 C5.64 9 8.28 9 11 9 C11.6814823 7.10820797 11.6814823 7.10820797 12 5 C10.04366025 2.58878141 10.04366025 2.58878141 6.375 2.875 C4.704375 2.936875 4.704375 2.936875 3 3 Z " fill="#100B5C" transform="translate(633,587)"/>
<path d="M0 0 C4.29 0 8.58 0 13 0 C13 0.99 13 1.98 13 3 C9.7 3 6.4 3 3 3 C3 4.65 3 6.3 3 8 C5.97 8 8.94 8 12 8 C12 8.99 12 9.98 12 11 C9.03 11 6.06 11 3 11 C3 12.98 3 14.96 3 17 C6.3 17 9.6 17 13 17 C13 17.66 13 18.32 13 19 C8.71 19 4.42 19 0 19 C0 12.73 0 6.46 0 0 Z " fill="#100B5C" transform="translate(746,587)"/>
<path d="M0 0 C0.763125 0.61875 1.52625 1.2375 2.3125 1.875 C4.99625809 4.05597052 4.99625809 4.05597052 8 6 C7.34 6.66 6.68 7.32 6 8 C5.60235737 9.98821313 5.26224651 11.98944339 5 14 C3.6078125 13.7215625 3.6078125 13.7215625 2.1875 13.4375 C-1.01343771 12.75876119 -1.01343771 12.75876119 -4 14 C-3.9071875 12.88625 -3.9071875 12.88625 -3.8125 11.75 C-4.03094296 8.54616994 -4.90250005 7.35968744 -7 5 C-5.02 4.67 -3.04 4.34 -1 4 C-0.67 2.68 -0.34 1.36 0 0 Z " fill="#FFDC5C" transform="translate(213,586)"/>
<path d="M0 0 C5.28 0 10.56 0 16 0 C16 0.99 16 1.98 16 3 C13.69 3 11.38 3 9 3 C9 8.28 9 13.56 9 19 C8.01 19 7.02 19 6 19 C6 13.72 6 8.44 6 3 C4.02 3 2.04 3 0 3 C0 2.01 0 1.02 0 0 Z " fill="#100B5C" transform="translate(870,587)"/>
<path d="M0 0 C0.66 0 1.32 0 2 0 C2.33 1.32 2.66 2.64 3 4 C4.65 4.33 6.3 4.66 8 5 C7.01 6.485 7.01 6.485 6 8 C5.83300768 11.12521833 5.83300768 11.12521833 6 14 C4.906875 13.814375 3.81375 13.62875 2.6875 13.4375 C-0.93624133 12.7421932 -0.93624133 12.7421932 -4 14 C-3.95875 13.071875 -3.9175 12.14375 -3.875 11.1875 C-3.72863661 7.84190281 -3.72863661 7.84190281 -6 5 C-4.35 4.67 -2.7 4.34 -1 4 C-0.67 2.68 -0.34 1.36 0 0 Z " fill="#FFDC5C" transform="translate(268,586)"/>
<path d="M0 0 C4.95 0 9.9 0 15 0 C15 0.99 15 1.98 15 3 C13.02 3 11.04 3 9 3 C9 8.28 9 13.56 9 19 C8.01 19 7.02 19 6 19 C6 13.72 6 8.44 6 3 C4.02 3 2.04 3 0 3 C0 2.01 0 1.02 0 0 Z " fill="#100B5C" transform="translate(704,587)"/>
<path d="M0 0 C0.99 0 1.98 0 3 0 C3 6.27 3 12.54 3 19 C2.01 19 1.02 19 0 19 C0 12.73 0 6.46 0 0 Z " fill="#100B5C" transform="translate(720,587)"/>
<path d="M0 0 C1.32 0.33 2.64 0.66 4 1 C3.67 1.99 3.34 2.98 3 4 C2.01 3.67 1.02 3.34 0 3 C0 2.01 0 1.02 0 0 Z " fill="#100B5C" transform="translate(886,603)"/>
<path d="M0 0 C0.99 0 1.98 0 3 0 C2.67 1.32 2.34 2.64 2 4 C1.01 3.67 0.02 3.34 -1 3 C-0.67 2.01 -0.34 1.02 0 0 Z " fill="#100B5C" transform="translate(761,603)"/>
<path d="M0 0 C0.99 0 1.98 0 3 0 C3 1.32 3 2.64 3 4 C2.01 4 1.02 4 0 4 C0 2.68 0 1.36 0 0 Z " fill="#100B5C" transform="translate(964,603)"/>
</svg>